<svg xmlns="http://www.w3.org/2000/svg" width="558" height="558" viewBox="0 0 558 558">
  <style>
    path { fill: black; }
    @media (prefers-color-scheme: dark) {
      path { fill: white; }
    }
  </style>
  <path d="M1.13,99.81V51.41H250V.71h62.23v50.7H556.56v48.4ZM28.79,557.23V294.49H531.21v193.6q2.26,64.49-69.14,66.83-27.66,2.26-85.27,2.31-2.32-16.15-9.22-43.79c-1.55-4.61-2.31-7.71-2.31-9.22H429.8q43.76,2.26,41.49-30V342.89H88.71V557.23Zm57.62-301V136.38H471.29V256.23Zm59.92-80.67v39.18h265V175.56Zm4.61,317.74V373.46H406.76V493.3Zm57.61-80.66v46.09H349.14V412.64Z"/>
</svg>
